<svg xmlns="http://www.w3.org/2000/svg" width="146" height="43" fill="none"><g clip-path="url(#a)"><path fill="#2C2C2C" d="M140.806 43H5.114C2.294 43 0 40.712 0 37.912V5.08C0 2.28 2.295 0 5.114 0h135.692C143.624 0 146 2.279 146 5.08v32.832c0 2.8-2.376 5.088-5.194 5.088z"/><path fill="#2C2C2C" d="M145.126 37.988a4.142 4.142 0 0 1-4.154 4.134H5.033c-2.295 0-4.159-1.85-4.159-4.134V5.018c0-2.284 1.864-4.14 4.16-4.14H140.97a4.146 4.146 0 0 1 4.153 4.14l.002 32.97z"/><path fill="#fff" d="M32.583 21.268c-.032-3.465 2.854-5.15 2.986-5.229-1.635-2.368-4.167-2.692-5.057-2.718-2.128-.222-4.191 1.266-5.275 1.266-1.105 0-2.774-1.244-4.572-1.207-2.315.035-4.48 1.367-5.667 3.435-2.45 4.217-.623 10.415 1.725 13.824 1.174 1.67 2.547 3.533 4.343 3.468 1.757-.072 2.414-1.114 4.535-1.114 2.1 0 2.717 1.114 4.55 1.072 1.885-.03 3.073-1.677 4.206-3.362 1.358-1.913 1.903-3.798 1.924-3.895-.044-.015-3.663-1.387-3.698-5.54zM29.122 11.08c.945-1.176 1.592-2.774 1.412-4.396-1.368.06-3.079.94-4.064 2.09-.872 1.012-1.65 2.672-1.45 4.233 1.538.114 3.115-.771 4.102-1.928zm28.894 22.787H55.56l-1.345-4.202h-4.677l-1.281 4.202h-2.391l4.633-14.306h2.861l4.656 14.306zm-4.207-5.965-1.216-3.736c-.13-.381-.37-1.28-.726-2.695h-.043c-.142.609-.37 1.508-.684 2.695l-1.195 3.736h3.864zm16.122.681c0 1.754-.477 3.14-1.43 4.159-.855.906-1.916 1.359-3.183 1.359-1.366 0-2.349-.489-2.947-1.465h-.043v5.435h-2.306V26.948c0-1.103-.029-2.235-.085-3.396h2.028l.128 1.635h.044c.769-1.232 1.936-1.847 3.502-1.847 1.224 0 2.246.48 3.063 1.442.82.964 1.229 2.23 1.229 3.8zm-2.349.084c0-1.005-.227-1.832-.683-2.484-.5-.68-1.168-1.019-2.008-1.019-.569 0-1.086.19-1.547.562a2.606 2.606 0 0 0-.908 1.476 2.983 2.983 0 0 0-.107.7v1.72c0 .75.232 1.383.695 1.9.462.517 1.064.775 1.803.775.869 0 1.545-.333 2.028-.998.485-.665.727-1.543.727-2.633zm14.285-.084c0 1.754-.477 3.14-1.432 4.159-.853.906-1.914 1.359-3.18 1.359-1.368 0-2.35-.489-2.947-1.465h-.043v5.435H71.96V26.948c0-1.103-.03-2.235-.086-3.396h2.028l.129 1.635h.043c.768-1.232 1.934-1.847 3.502-1.847 1.223 0 2.245.48 3.065 1.442.816.964 1.226 2.23 1.226 3.8zm-2.35.084c0-1.005-.227-1.832-.684-2.484-.498-.68-1.165-1.019-2.006-1.019-.57 0-1.086.19-1.549.562a2.605 2.605 0 0 0-.906 1.476 3.06 3.06 0 0 0-.107.7v1.72c0 .75.232 1.383.692 1.9.463.516 1.065.775 1.806.775.869 0 1.545-.333 2.028-.998.485-.665.727-1.543.727-2.633zm15.695 1.188c0 1.217-.425 2.207-1.278 2.971-.938.836-2.243 1.253-3.92 1.253-1.549 0-2.79-.297-3.73-.891l.534-1.91a6.35 6.35 0 0 0 3.333.913c.868 0 1.544-.196 2.03-.585.483-.389.725-.911.725-1.563 0-.58-.2-1.07-.599-1.466-.396-.397-1.06-.765-1.985-1.106-2.52-.934-3.779-2.303-3.779-4.102 0-1.177.441-2.14 1.325-2.891.88-.752 2.055-1.127 3.523-1.127 1.31 0 2.398.227 3.267.68l-.577 1.868c-.81-.439-1.728-.658-2.754-.658-.811 0-1.445.199-1.9.595a1.694 1.694 0 0 0-.576 1.295c0 .566.22 1.033.66 1.4.385.34 1.082.708 2.095 1.105 1.238.495 2.148 1.075 2.733 1.74.582.661.873 1.49.873 2.48zm7.624-4.584h-2.542v5.009c0 1.274.448 1.91 1.346 1.91a4.13 4.13 0 0 0 1.024-.106l.064 1.74c-.455.169-1.053.254-1.793.254-.911 0-1.623-.277-2.136-.828-.512-.553-.77-1.48-.77-2.781v-5.2h-1.513v-1.72h1.514V21.66l2.264-.679v2.568h2.542v1.722zm11.467 3.353c0 1.586-.456 2.888-1.367 3.906-.955 1.048-2.222 1.57-3.802 1.57-1.523 0-2.736-.502-3.64-1.506-.904-1.004-1.356-2.271-1.356-3.799 0-1.598.465-2.908 1.399-3.926.931-1.019 2.187-1.528 3.767-1.528 1.523 0 2.748.502 3.673 1.507.885.975 1.326 2.234 1.326 3.776zm-2.392.075c0-.952-.205-1.768-.619-2.448-.483-.824-1.174-1.234-2.07-1.234-.927 0-1.631.412-2.114 1.234-.414.681-.619 1.51-.619 2.49 0 .952.205 1.768.619 2.447.498.824 1.195 1.234 2.094 1.234.88 0 1.571-.419 2.07-1.255.425-.694.639-1.518.639-2.468zm9.886-3.132a4.021 4.021 0 0 0-.726-.063c-.811 0-1.439.304-1.88.914-.384.537-.576 1.216-.576 2.037v5.412h-2.305l.022-7.067c0-1.189-.03-2.271-.087-3.247h2.008l.085 1.973h.064c.243-.678.627-1.224 1.152-1.634a2.801 2.801 0 0 1 1.667-.552c.213 0 .406.015.576.042v2.185zm10.313 2.654c0 .41-.027.757-.085 1.04h-6.917c.027 1.019.361 1.798 1.004 2.336.583.48 1.336.721 2.262.721 1.024 0 1.959-.162 2.799-.488l.361 1.591c-.982.426-2.141.638-3.479.638-1.609 0-2.872-.471-3.792-1.412-.917-.94-1.376-2.204-1.376-3.788 0-1.556.427-2.851 1.282-3.884.896-1.103 2.106-1.655 3.629-1.655 1.495 0 2.628.552 3.397 1.655.609.876.915 1.96.915 3.246zm-2.199-.594c.015-.68-.135-1.267-.448-1.762-.399-.638-1.012-.956-1.837-.956-.754 0-1.367.31-1.835.934-.384.496-.613 1.09-.683 1.783h4.803zM53.047 10.76c0 1.265-.382 2.218-1.144 2.857-.707.59-1.71.886-3.01.886-.645 0-1.196-.028-1.658-.084V7.506a12.305 12.305 0 0 1 1.952-.146c1.238 0 2.172.267 2.801.803.705.605 1.059 1.47 1.059 2.597zm-1.195.031c0-.82-.219-1.45-.656-1.888-.437-.437-1.075-.657-1.915-.657-.357 0-.66.024-.913.074v5.255c.14.022.395.031.766.031.867 0 1.537-.24 2.008-.719.472-.48.71-1.178.71-2.096zm7.531 1.074c0 .78-.224 1.418-.671 1.919-.47.515-1.092.772-1.868.772-.748 0-1.344-.246-1.789-.74-.443-.494-.665-1.117-.665-1.867 0-.785.228-1.429.687-1.929.458-.5 1.075-.75 1.851-.75.749 0 1.35.246 1.805.74.433.48.65 1.098.65 1.855zm-1.175.037c0-.468-.102-.869-.304-1.203-.238-.405-.577-.607-1.017-.607-.455 0-.801.202-1.039.607-.203.334-.304.741-.304 1.223 0 .468.102.869.304 1.203.245.404.587.606 1.029.606.432 0 .772-.205 1.016-.617.21-.34.315-.745.315-1.212zm9.672-2.529-1.596 5.068h-1.038l-.661-2.2a16.398 16.398 0 0 1-.41-1.638h-.02a11.925 11.925 0 0 1-.41 1.637l-.702 2.2h-1.05l-1.5-5.067h1.164l.577 2.41c.14.57.254 1.112.346 1.626h.02c.085-.424.224-.963.421-1.616l.724-2.419h.923l.694 2.367c.167.578.303 1.134.408 1.669h.032c.076-.521.192-1.077.346-1.668l.618-2.368h1.113zm5.875 5.067H72.62v-2.902c0-.894-.341-1.341-1.027-1.341-.336 0-.608.122-.819.368a1.304 1.304 0 0 0-.314.869v3.006h-1.134v-3.62c0-.445-.014-.927-.04-1.45h.995l.053.792h.032c.132-.246.328-.449.587-.611.307-.19.65-.285 1.027-.285.476 0 .872.152 1.187.459.391.375.587.935.587 1.679v3.036zm3.125 0h-1.132V7.049h1.132v7.393zm6.673-2.575c0 .78-.224 1.418-.671 1.919-.47.515-1.093.772-1.868.772-.75 0-1.345-.246-1.789-.74-.443-.494-.665-1.117-.665-1.867 0-.785.228-1.429.687-1.929.458-.5 1.075-.75 1.85-.75.75 0 1.35.246 1.806.74.433.48.65 1.098.65 1.855zm-1.176.037c0-.468-.102-.869-.304-1.203-.237-.405-.577-.607-1.016-.607-.456 0-.802.202-1.04.607-.202.334-.303.741-.303 1.223 0 .468.102.869.304 1.203.245.404.587.606 1.028.606.433 0 .771-.205 1.016-.617.21-.34.315-.745.315-1.212zm6.661 2.538h-1.017l-.085-.583h-.031c-.348.466-.845.699-1.49.699-.48 0-.87-.154-1.163-.46a1.435 1.435 0 0 1-.399-1.031c0-.62.26-1.091.782-1.418.521-.327 1.254-.487 2.199-.48v-.094c0-.668-.353-1.001-1.06-1.001-.502 0-.945.126-1.328.375l-.23-.74c.473-.29 1.058-.437 1.748-.437 1.332 0 2 .699 2 2.096v1.867c0 .506.026.909.074 1.208zm-1.176-1.74v-.782c-1.25-.022-1.876.319-1.876 1.021 0 .264.072.462.218.595a.796.796 0 0 0 .553.197c.25 0 .482-.078.694-.234a.959.959 0 0 0 .41-.798zm7.616 1.74h-1.005l-.053-.813h-.032c-.32.62-.868.929-1.637.929-.614 0-1.126-.24-1.531-.72-.406-.479-.608-1.101-.608-1.866 0-.82.22-1.484.66-1.992.428-.473.951-.71 1.574-.71.685 0 1.164.23 1.436.689h.022v-2.91h1.135v6.028c0 .494.012.949.04 1.366zm-1.174-2.136v-.845c0-.147-.01-.265-.031-.355a1.281 1.281 0 0 0-.41-.683 1.118 1.118 0 0 0-.758-.276 1.17 1.17 0 0 0-.998.5c-.24.335-.363.762-.363 1.283 0 .501.116.908.348 1.22.246.334.577.5.991.5.372 0 .67-.138.895-.417a1.38 1.38 0 0 0 .326-.928zm10.868-.439c0 .78-.224 1.418-.672 1.919-.469.515-1.09.772-1.867.772-.748 0-1.344-.246-1.789-.74-.444-.494-.665-1.117-.665-1.867 0-.785.228-1.429.686-1.929.459-.5 1.075-.75 1.853-.75.747 0 1.35.246 1.804.74.433.48.65 1.098.65 1.855zm-1.175.037c0-.468-.101-.869-.303-1.203-.239-.405-.577-.607-1.018-.607-.454 0-.8.202-1.039.607-.204.334-.304.741-.304 1.223 0 .468.101.869.304 1.203.245.404.587.606 1.028.606.433 0 .773-.205 1.018-.617.208-.34.314-.745.314-1.212zm7.269 2.538h-1.132v-2.902c0-.894-.342-1.341-1.029-1.341a1.02 1.02 0 0 0-.817.368 1.3 1.3 0 0 0-.315.869v3.006h-1.135v-3.62c0-.445-.013-.927-.04-1.45h.995l.053.792h.032c.133-.246.33-.449.587-.611a1.92 1.92 0 0 1 1.028-.285c.475 0 .871.152 1.186.459.392.375.587.935.587 1.679v3.036zm7.628-4.223h-1.248v2.462c0 .625.222.938.661.938.203 0 .372-.017.505-.052l.029.854c-.224.084-.518.126-.88.126-.448 0-.796-.136-1.048-.406-.253-.271-.379-.727-.379-1.367v-2.555h-.745v-.844h.745v-.929l1.111-.333v1.261h1.248v.845h.001zm6 4.223h-1.135v-2.88c0-.909-.341-1.364-1.026-1.364-.526 0-.885.264-1.081.79a1.39 1.39 0 0 0-.053.406v3.048h-1.133V7.048h1.133v3.054h.021c.357-.556.869-.833 1.532-.833.469 0 .857.152 1.165.459.384.382.577.95.577 1.7v3.013zm6.189-2.773c0 .202-.015.372-.042.51h-3.399c.015.502.177.883.492 1.148.288.236.659.355 1.113.355.503 0 .961-.08 1.374-.24l.178.783c-.484.208-1.052.312-1.711.312-.79 0-1.411-.23-1.861-.693-.452-.462-.676-1.083-.676-1.86 0-.765.209-1.402.629-1.909.439-.542 1.033-.813 1.782-.813.734 0 1.291.271 1.667.813.304.43.454.962.454 1.594zm-1.081-.291a1.512 1.512 0 0 0-.22-.865c-.197-.313-.496-.47-.902-.47-.37 0-.671.152-.902.459a1.703 1.703 0 0 0-.336.876h2.36z"/></g><defs><clipPath id="a"><path fill="#fff" d="M0 0h146v43H0z"/></clipPath></defs></svg>