<svg xmlns="http://www.w3.org/2000/svg" width="146" height="43" fill="none"><g clip-path="url(#a)"><path fill="#2C2C2C" fill-rule="evenodd" d="M140.591 43H5.409C2.428 43 0 40.577 0 37.625V5.375C0 2.413 2.428 0 5.41 0h135.18c2.979 0 5.41 2.413 5.41 5.375v32.25c0 2.952-2.431 5.375-5.409 5.375z" clip-rule="evenodd"/><path fill="#2C2C2C" fill-rule="evenodd" d="M140.591.86c2.5 0 4.547 2.03 4.547 4.515v32.25c0 2.485-2.033 4.514-4.547 4.514H5.409c-2.5 0-4.547-2.029-4.547-4.514V5.375C.862 2.89 2.895.861 5.41.861h135.182zm0-.86H5.409C2.428 0 0 2.423 0 5.375v32.25C0 40.587 2.428 43 5.41 43h135.18c2.978 0 5.409-2.413 5.409-5.375V5.375C146 2.423 143.569 0 140.591 0z" clip-rule="evenodd"/><path fill="#fff" d="M76.913 14.225c-.975 0-1.797-.34-2.447-1.01a3.438 3.438 0 0 1-.988-2.467c0-.979.333-1.807.988-2.464.648-.67 1.47-1.01 2.445-1.01.964 0 1.786.34 2.446 1.01a3.43 3.43 0 0 1 .989 2.464c-.011.98-.344 1.81-.989 2.463-.647.676-1.469 1.014-2.444 1.014zm-29.01 0a3.4 3.4 0 0 1-2.458-.998c-.671-.659-1.012-1.493-1.012-2.477 0-.983.34-1.817 1.012-2.477.664-.662 1.49-.997 2.458-.997.473 0 .932.094 1.372.284.433.185.785.437 1.045.746l.065.077-.728.713-.075-.088c-.412-.488-.962-.727-1.69-.727-.65 0-1.217.231-1.684.687-.47.458-.71 1.059-.71 1.785 0 .727.24 1.327.71 1.786a2.337 2.337 0 0 0 1.684.686c.693 0 1.276-.23 1.73-.686.268-.269.435-.644.494-1.118h-2.334v-1.003h3.336l.013.091c.024.17.049.343.049.504 0 .925-.28 1.673-.833 2.225-.629.654-1.45.987-2.444.987zm38.572-.142h-1.029l-3.15-5.032.027.906v4.123h-1.03V7.418h1.175l.032.051 2.962 4.74-.026-.904V7.418h1.039v6.665zm-17.292 0h-1.042V8.42h-1.808V7.418h4.655v1.003H69.18v5.662h.003zm-3.698 0h-1.04V7.418h1.04v6.665zm-5.842 0h-1.04V8.42h-1.807V7.418h4.654v1.003h-1.807v5.662zm-3.505-.011h-3.986V7.418h3.986v1.003h-2.944v1.828h2.656v.992h-2.656v1.828h2.944v1.003zm19.091-1.547a2.302 2.302 0 0 0 1.684.697c.674 0 1.225-.228 1.684-.697.457-.456.688-1.053.688-1.775 0-.72-.231-1.321-.685-1.774a2.306 2.306 0 0 0-1.684-.697c-.674 0-1.225.228-1.681.697-.457.455-.688 1.053-.688 1.774 0 .722.228 1.322.682 1.775z"/><path fill="#fff" fill-rule="evenodd" d="M73.381 23.388c-2.538 0-4.595 1.922-4.595 4.573 0 2.627 2.07 4.574 4.595 4.574 2.538 0 4.596-1.936 4.596-4.574 0-2.651-2.058-4.573-4.596-4.573zm0 7.334c-1.388 0-2.584-1.147-2.584-2.771 0-1.65 1.198-2.773 2.584-2.773 1.389 0 2.584 1.124 2.584 2.773.003 1.635-1.195 2.771-2.584 2.771zm-10.026-7.334c-2.538 0-4.596 1.922-4.596 4.573 0 2.627 2.071 4.574 4.596 4.574 2.538 0 4.595-1.936 4.595-4.574 0-2.651-2.06-4.573-4.595-4.573zm0 7.334c-1.389 0-2.584-1.147-2.584-2.771 0-1.65 1.198-2.773 2.584-2.773 1.388 0 2.584 1.124 2.584 2.773 0 1.635-1.196 2.771-2.584 2.771zm-11.931-5.938v1.936h4.655c-.143 1.086-.503 1.887-1.053 2.437-.682.68-1.735 1.42-3.591 1.42-2.86 0-5.098-2.305-5.098-5.16s2.237-5.16 5.098-5.16c1.544 0 2.67.608 3.505 1.385l1.375-1.372c-1.16-1.11-2.705-1.96-4.87-1.96-3.924 0-7.217 3.19-7.217 7.096 0 3.917 3.29 7.096 7.218 7.096 2.119 0 3.709-.691 4.966-1.994 1.28-1.279 1.687-3.083 1.687-4.539 0-.453-.035-.86-.108-1.206h-6.57c.003-.003.003.021.003.021zm48.8 1.507c-.384-1.027-1.544-2.914-3.924-2.914-2.358 0-4.319 1.852-4.319 4.574 0 2.568 1.94 4.573 4.547 4.573 2.095 0 3.315-1.279 3.817-2.03l-1.555-1.04c-.516.764-1.233 1.266-2.251 1.266-1.029 0-1.749-.467-2.227-1.386l6.127-2.534c0 .003-.215-.509-.215-.509zm-6.247 1.528c-.049-1.767 1.375-2.665 2.393-2.665.803 0 1.472.395 1.7.968l-4.093 1.697zM89 32.251h2.011V18.814H89v13.437zm-3.304-7.847h-.072c-.454-.54-1.316-1.027-2.418-1.027-2.285 0-4.391 2.008-4.391 4.587 0 2.568 2.095 4.552 4.391 4.552 1.088 0 1.964-.49 2.418-1.04h.072v.657c0 1.745-.935 2.686-2.441 2.686-1.233 0-1.999-.885-2.31-1.625l-1.749.73c.502 1.206 1.843 2.699 4.056 2.699 2.358 0 4.356-1.386 4.356-4.767V23.65h-1.901v.754h-.01zm-2.31 6.318c-1.388 0-2.549-1.158-2.549-2.758 0-1.614 1.16-2.783 2.55-2.783 1.374 0 2.44 1.182 2.44 2.783.014 1.6-1.063 2.758-2.44 2.758zm26.258-11.908h-4.811v13.437h2.012v-5.089h2.801c2.227 0 4.416-1.61 4.416-4.168s-2.181-4.18-4.418-4.18zm.059 6.472h-2.861v-4.611h2.861c1.506 0 2.358 1.241 2.358 2.305 0 1.054-.862 2.306-2.358 2.306zm12.422-1.922c-1.461 0-2.968.646-3.591 2.053l1.783.74c.384-.74 1.088-.992 1.832-.992 1.042 0 2.095.622 2.119 1.732v.142c-.36-.204-1.149-.515-2.095-.515-1.926 0-3.878 1.051-3.878 3.021 0 1.805 1.579 2.963 3.338 2.963 1.351 0 2.095-.609 2.56-1.314h.073v1.04h1.939v-5.147c0-2.396-1.784-3.723-4.08-3.723zm-.253 7.358c-.658 0-1.579-.321-1.579-1.147 0-1.04 1.15-1.434 2.13-1.434.886 0 1.305.19 1.832.453a2.42 2.42 0 0 1-2.383 2.128zm11.407-7.072-2.309 5.829h-.073l-2.393-5.828h-2.165l3.591 8.146-2.047 4.528h2.095l5.525-12.675h-2.224zm-18.108 8.6h2.012V18.815h-2.012v13.437z" clip-rule="evenodd"/><path fill="url(#b)" fill-rule="evenodd" d="M11.238 8.099c-.312.335-.492.847-.492 1.517v23.771c0 .67.18 1.182.502 1.504l.084.072 13.343-13.318v-.297L11.321 8.027l-.083.072z" clip-rule="evenodd"/><path fill="url(#c)" fill-rule="evenodd" d="m29.115 26.098-4.45-4.442v-.311l4.45-4.442.097.059 5.264 2.986c1.507.847 1.507 2.247 0 3.104l-5.264 2.987-.097.059z" clip-rule="evenodd"/><path fill="url(#d)" fill-rule="evenodd" d="M29.212 26.039 24.665 21.5 11.238 34.901c.491.526 1.316.585 2.237.073l15.737-8.935z" clip-rule="evenodd"/><path fill="url(#e)" fill-rule="evenodd" d="M29.212 16.962 13.475 8.04c-.921-.526-1.748-.453-2.237.072L24.665 21.5l4.547-4.538z" clip-rule="evenodd"/><path fill="#2C2C2C" fill-rule="evenodd" d="m29.115 25.943-15.63 8.862c-.872.502-1.65.467-2.153.011l-.084.083.084.073c.502.453 1.281.49 2.154-.011l15.737-8.922-.108-.096z" clip-rule="evenodd" opacity=".2"/><path fill="#2C2C2C" fill-rule="evenodd" d="m34.476 22.897-5.374 3.045.096.097 5.265-2.987c.754-.429 1.125-.992 1.125-1.552-.046.515-.43 1.003-1.112 1.397z" clip-rule="evenodd" opacity=".12"/><path fill="#fff" fill-rule="evenodd" d="m13.475 8.195 21.001 11.908c.682.384 1.066.885 1.125 1.397 0-.56-.37-1.123-1.125-1.552L13.475 8.04c-1.507-.86-2.729-.142-2.729 1.576v.156c0-1.722 1.222-2.427 2.729-1.577z" clip-rule="evenodd" opacity=".25"/></g><defs><linearGradient id="b" x1="23.478" x2="2.11" y1="9.36" y2="15.064" gradientUnits="userSpaceOnUse"><stop stop-color="#00A0FF"/><stop offset=".007" stop-color="#00A1FF"/><stop offset=".26" stop-color="#00BEFF"/><stop offset=".512" stop-color="#00D2FF"/><stop offset=".76" stop-color="#00DFFF"/><stop offset="1" stop-color="#00E3FF"/></linearGradient><linearGradient id="c" x1="36.441" x2="10.38" y1="21.5" y2="21.5" gradientUnits="userSpaceOnUse"><stop stop-color="#FFE000"/><stop offset=".409" stop-color="#FFBD00"/><stop offset=".775" stop-color="orange"/><stop offset="1" stop-color="#FF9C00"/></linearGradient><linearGradient id="d" x1="26.739" x2="9.628" y1="23.97" y2="52.823" gradientUnits="userSpaceOnUse"><stop stop-color="#FF3A44"/><stop offset="1" stop-color="#C31162"/></linearGradient><linearGradient id="e" x1="7.857" x2="15.491" y1=".192" y2="13.079" gradientUnits="userSpaceOnUse"><stop stop-color="#32A071"/><stop offset=".069" stop-color="#2DA771"/><stop offset=".476" stop-color="#15CF74"/><stop offset=".801" stop-color="#06E775"/><stop offset="1" stop-color="#00F076"/></linearGradient><clipPath id="a"><path fill="#fff" d="M0 0h146v43H0z"/></clipPath></defs></svg>